# MagicaVoxel @ Ephtracy

# group
o 

# material
mtllib DogBody1.mtl
usemtl palette

# normals
vn -1 0 0
vn 1 0 0
vn 0 0 1
vn 0 0 -1
vn 0 -1 0
vn 0 1 0

# texcoords
vt 0.185547 0.5
vt 0.841797 0.5
vt 0.994141 0.5

# verts
v -0.1 0.4 0.1
v -0.1 0.4 -0.1
v -0.1 0.5 0.2
v -0.1 0.5 0.1
v -0.1 0.5 -0.1
v -0.1 0.5 -0.2
v -0.1 0.7 0.2
v -0.1 0.7 0.1
v -0.1 0.7 -0.1
v -0.1 0.7 -0.2
v -0.1 0.8 0.1
v -0.1 0.8 -0.1
v 0 0.6 1
v 0 0.6 0.2
v 0 0.6 -0.2
v 0 0.6 -1
v 0 0.7 1.1
v 0 0.7 1
v 0 0.7 0.2
v 0 0.7 0.1
v 0 0.7 -0.1
v 0 0.7 -0.2
v 0 0.7 -1
v 0 0.7 -1.1
v 0 0.8 0.1
v 0 0.8 -0.1
v 0 1 1.1
v 0 1 1
v 0 1 0.6
v 0 1 0.3
v 0 1 -0.3
v 0 1 -0.6
v 0 1 -1
v 0 1 -1.1
v 0 1.1 1
v 0 1.1 0.6
v 0 1.1 -0.6
v 0 1.1 -1
v 0 1.2 0.3
v 0 1.2 0.2
v 0 1.2 -0.2
v 0 1.2 -0.3
v 0 1.3 0.2
v 0 1.3 0.1
v 0 1.3 -0.1
v 0 1.3 -0.2
v 0 1.4 0.1
v 0 1.4 -0.1
v 0.1 0.3 0.1
v 0.1 0.3 -0.1
v 0.1 0.4 0.2
v 0.1 0.4 0.1
v 0.1 0.4 -0.1
v 0.1 0.4 -0.2
v 0.1 0.5 0.3
v 0.1 0.5 0.2
v 0.1 0.5 -0.2
v 0.1 0.5 -0.3
v 0.1 0.6 0.3
v 0.1 0.6 0.2
v 0.1 0.6 -0.2
v 0.1 0.6 -0.3
v 0.2 0 0.3
v 0.2 0 0.2
v 0.2 0 -0.2
v 0.2 0 -0.3
v 0.2 0.3 0.2
v 0.2 0.3 0.1
v 0.2 0.3 -0.1
v 0.2 0.3 -0.2
v 0.2 0.4 0.2
v 0.2 0.4 0.1
v 0.2 0.4 -0.1
v 0.2 0.4 -0.2
v 0.2 0.5 0.3
v 0.2 0.5 0.2
v 0.2 0.5 -0.2
v 0.2 0.5 -0.3
v 0.8 0 0.3
v 0.8 0 0.2
v 0.8 0 -0.2
v 0.8 0 -0.3
v 0.8 0.3 0.3
v 0.8 0.3 0.2
v 0.8 0.3 -0.2
v 0.8 0.3 -0.3
v 0.8 0.4 0.2
v 0.8 0.4 -0.2
v 0.8 0.5 0.2
v 0.8 0.5 -0.2
v 0 0.4 0.1
v 0 0.4 -0.1
v 0 0.5 0.1
v 0 0.5 -0.1
v 0.1 0.6 1
v 0.1 0.6 0.5
v 0.1 0.6 -0.5
v 0.1 0.6 -1
v 0.1 0.7 1.1
v 0.1 0.7 1
v 0.1 0.7 0.9
v 0.1 0.7 0.5
v 0.1 0.7 -0.5
v 0.1 0.7 -0.9
v 0.1 0.7 -1
v 0.1 0.7 -1.1
v 0.1 0.8 0.7
v 0.1 0.8 0.3
v 0.1 0.8 -0.3
v 0.1 0.8 -0.7
v 0.1 0.9 0.9
v 0.1 0.9 0.7
v 0.1 0.9 0.3
v 0.1 0.9 0.2
v 0.1 0.9 -0.2
v 0.1 0.9 -0.3
v 0.1 0.9 -0.7
v 0.1 0.9 -0.9
v 0.1 1 1.1
v 0.1 1 1
v 0.1 1 0.6
v 0.1 1 0.3
v 0.1 1 0.2
v 0.1 1 0.1
v 0.1 1 -0.1
v 0.1 1 -0.2
v 0.1 1 -0.3
v 0.1 1 -0.6
v 0.1 1 -1
v 0.1 1 -1.1
v 0.1 1.1 1
v 0.1 1.1 0.6
v 0.1 1.1 -0.6
v 0.1 1.1 -1
v 0.1 1.2 0.3
v 0.1 1.2 0.2
v 0.1 1.2 0.1
v 0.1 1.2 -0.1
v 0.1 1.2 -0.2
v 0.1 1.2 -0.3
v 0.1 1.3 0.2
v 0.1 1.3 0.1
v 0.1 1.3 -0.1
v 0.1 1.3 -0.2
v 0.1 1.4 0.1
v 0.1 1.4 -0.1
v 0.2 0.6 0.5
v 0.2 0.6 0.3
v 0.2 0.6 -0.3
v 0.2 0.6 -0.5
v 0.2 0.7 0.9
v 0.2 0.7 0.5
v 0.2 0.7 0.3
v 0.2 0.7 0.2
v 0.2 0.7 -0.2
v 0.2 0.7 -0.3
v 0.2 0.7 -0.5
v 0.2 0.7 -0.9
v 0.2 0.8 0.7
v 0.2 0.8 0.3
v 0.2 0.8 0.2
v 0.2 0.8 0.1
v 0.2 0.8 -0.1
v 0.2 0.8 -0.2
v 0.2 0.8 -0.3
v 0.2 0.8 -0.7
v 0.2 0.9 0.9
v 0.2 0.9 0.7
v 0.2 0.9 0.3
v 0.2 0.9 0.2
v 0.2 0.9 -0.2
v 0.2 0.9 -0.3
v 0.2 0.9 -0.7
v 0.2 0.9 -0.9
v 0.2 1 0.2
v 0.2 1 0.1
v 0.2 1 -0.1
v 0.2 1 -0.2
v 0.2 1.2 0.1
v 0.2 1.2 -0.1
v 0.3 0 0.3
v 0.3 0 0.2
v 0.3 0 -0.2
v 0.3 0 -0.3
v 0.3 0.3 0.3
v 0.3 0.3 0.2
v 0.3 0.3 -0.2
v 0.3 0.3 -0.3
v 0.3 0.4 0.2
v 0.3 0.4 -0.2
v 0.3 0.5 0.2
v 0.3 0.5 -0.2
v 0.3 0.9 0.1
v 0.3 0.9 -0.1
v 0.3 1 0.1
v 0.3 1 -0.1
v 0.4 0.6 0.3
v 0.4 0.6 0.2
v 0.4 0.6 -0.2
v 0.4 0.6 -0.3
v 0.4 0.7 0.3
v 0.4 0.7 0.2
v 0.4 0.7 0.1
v 0.4 0.7 -0.1
v 0.4 0.7 -0.2
v 0.4 0.7 -0.3
v 0.4 0.8 0.2
v 0.4 0.8 0.1
v 0.4 0.8 -0.1
v 0.4 0.8 -0.2
v 0.4 0.9 0.1
v 0.4 0.9 -0.1
v 0.6 0.7 0.1
v 0.6 0.7 -0.1
v 0.6 0.8 0.1
v 0.6 0.8 -0.1
v 0.8 0.6 0.2
v 0.8 0.6 -0.2
v 0.8 0.7 0.2
v 0.8 0.7 -0.2
v 0.9 0 0.3
v 0.9 0 0.2
v 0.9 0 -0.2
v 0.9 0 -0.3
v 0.9 0.3 0.2
v 0.9 0.3 -0.2
v 0.9 0.5 0.1
v 0.9 0.5 -0.1
v 0.9 0.6 0.3
v 0.9 0.6 0.1
v 0.9 0.6 -0.1
v 0.9 0.6 -0.3
v 1.3 0.5 0.1
v 1.3 0.5 -0.1
v 1.3 0.6 0.1
v 1.3 0.6 -0.1
v 0 0.7 1.1
v 0 1 1.1
v 0.1 0.7 1.1
v 0.1 1 1.1
v 0 0.6 1
v 0 0.7 1
v 0 1 1
v 0 1.1 1
v 0.1 0.6 1
v 0.1 0.7 1
v 0.1 1 1
v 0.1 1.1 1
v 0.1 0.7 0.9
v 0.1 0.9 0.9
v 0.2 0.7 0.9
v 0.2 0.9 0.9
v 0.1 0.6 0.5
v 0.1 0.7 0.5
v 0.2 0.6 0.5
v 0.2 0.7 0.5
v 0 1 0.3
v 0 1.2 0.3
v 0.1 0.5 0.3
v 0.1 0.6 0.3
v 0.1 0.8 0.3
v 0.1 0.9 0.3
v 0.1 1 0.3
v 0.1 1.2 0.3
v 0.2 0 0.3
v 0.2 0.5 0.3
v 0.2 0.6 0.3
v 0.2 0.7 0.3
v 0.2 0.8 0.3
v 0.2 0.9 0.3
v 0.3 0 0.3
v 0.3 0.3 0.3
v 0.4 0.6 0.3
v 0.4 0.7 0.3
v 0.8 0 0.3
v 0.8 0.3 0.3
v 0.9 0 0.3
v 0.9 0.6 0.3
v -0.1 0.5 0.2
v -0.1 0.7 0.2
v 0 0.5 0.2
v 0 0.6 0.2
v 0 0.7 0.2
v 0 1.2 0.2
v 0 1.3 0.2
v 0.1 0.4 0.2
v 0.1 0.5 0.2
v 0.1 0.6 0.2
v 0.1 0.9 0.2
v 0.1 1 0.2
v 0.1 1.2 0.2
v 0.1 1.3 0.2
v 0.2 0.4 0.2
v 0.2 0.5 0.2
v 0.2 0.7 0.2
v 0.2 0.8 0.2
v 0.2 0.9 0.2
v 0.2 1 0.2
v 0.4 0.6 0.2
v 0.4 0.7 0.2
v 0.4 0.8 0.2
v 0.8 0.6 0.2
v 0.8 0.7 0.2
v -0.1 0.4 0.1
v -0.1 0.5 0.1
v -0.1 0.7 0.1
v -0.1 0.8 0.1
v 0 0.4 0.1
v 0 0.5 0.1
v 0 0.7 0.1
v 0 0.8 0.1
v 0 1.3 0.1
v 0 1.4 0.1
v 0.1 0.3 0.1
v 0.1 0.4 0.1
v 0.1 1 0.1
v 0.1 1.2 0.1
v 0.1 1.3 0.1
v 0.1 1.4 0.1
v 0.2 0.3 0.1
v 0.2 0.4 0.1
v 0.2 0.8 0.1
v 0.2 1 0.1
v 0.2 1.2 0.1
v 0.3 0.9 0.1
v 0.3 1 0.1
v 0.4 0.7 0.1
v 0.4 0.8 0.1
v 0.4 0.9 0.1
v 0.6 0.7 0.1
v 0.6 0.8 0.1
v 0.9 0.5 0.1
v 0.9 0.6 0.1
v 1.3 0.5 0.1
v 1.3 0.6 0.1
v 0.2 0 -0.2
v 0.2 0.3 -0.2
v 0.3 0 -0.2
v 0.3 0.3 -0.2
v 0.3 0.4 -0.2
v 0.3 0.5 -0.2
v 0.8 0 -0.2
v 0.8 0.3 -0.2
v 0.8 0.4 -0.2
v 0.8 0.5 -0.2
v 0.9 0 -0.2
v 0.9 0.3 -0.2
v 0 1 -0.6
v 0 1.1 -0.6
v 0.1 1 -0.6
v 0.1 1.1 -0.6
v 0.1 0.8 -0.7
v 0.1 0.9 -0.7
v 0.2 0.8 -0.7
v 0.2 0.9 -0.7
v 0.1 0.8 0.7
v 0.1 0.9 0.7
v 0.2 0.8 0.7
v 0.2 0.9 0.7
v 0 1 0.6
v 0 1.1 0.6
v 0.1 1 0.6
v 0.1 1.1 0.6
v 0.2 0 0.2
v 0.2 0.3 0.2
v 0.3 0 0.2
v 0.3 0.3 0.2
v 0.3 0.4 0.2
v 0.3 0.5 0.2
v 0.8 0 0.2
v 0.8 0.3 0.2
v 0.8 0.4 0.2
v 0.8 0.5 0.2
v 0.9 0 0.2
v 0.9 0.3 0.2
v -0.1 0.4 -0.1
v -0.1 0.5 -0.1
v -0.1 0.7 -0.1
v -0.1 0.8 -0.1
v 0 0.4 -0.1
v 0 0.5 -0.1
v 0 0.7 -0.1
v 0 0.8 -0.1
v 0 1.3 -0.1
v 0 1.4 -0.1
v 0.1 0.3 -0.1
v 0.1 0.4 -0.1
v 0.1 1 -0.1
v 0.1 1.2 -0.1
v 0.1 1.3 -0.1
v 0.1 1.4 -0.1
v 0.2 0.3 -0.1
v 0.2 0.4 -0.1
v 0.2 0.8 -0.1
v 0.2 1 -0.1
v 0.2 1.2 -0.1
v 0.3 0.9 -0.1
v 0.3 1 -0.1
v 0.4 0.7 -0.1
v 0.4 0.8 -0.1
v 0.4 0.9 -0.1
v 0.6 0.7 -0.1
v 0.6 0.8 -0.1
v 0.9 0.5 -0.1
v 0.9 0.6 -0.1
v 1.3 0.5 -0.1
v 1.3 0.6 -0.1
v -0.1 0.5 -0.2
v -0.1 0.7 -0.2
v 0 0.5 -0.2
v 0 0.6 -0.2
v 0 0.7 -0.2
v 0 1.2 -0.2
v 0 1.3 -0.2
v 0.1 0.4 -0.2
v 0.1 0.5 -0.2
v 0.1 0.6 -0.2
v 0.1 0.9 -0.2
v 0.1 1 -0.2
v 0.1 1.2 -0.2
v 0.1 1.3 -0.2
v 0.2 0.4 -0.2
v 0.2 0.5 -0.2
v 0.2 0.7 -0.2
v 0.2 0.8 -0.2
v 0.2 0.9 -0.2
v 0.2 1 -0.2
v 0.4 0.6 -0.2
v 0.4 0.7 -0.2
v 0.4 0.8 -0.2
v 0.8 0.6 -0.2
v 0.8 0.7 -0.2
v 0 1 -0.3
v 0 1.2 -0.3
v 0.1 0.5 -0.3
v 0.1 0.6 -0.3
v 0.1 0.8 -0.3
v 0.1 0.9 -0.3
v 0.1 1 -0.3
v 0.1 1.2 -0.3
v 0.2 0 -0.3
v 0.2 0.5 -0.3
v 0.2 0.6 -0.3
v 0.2 0.7 -0.3
v 0.2 0.8 -0.3
v 0.2 0.9 -0.3
v 0.3 0 -0.3
v 0.3 0.3 -0.3
v 0.4 0.6 -0.3
v 0.4 0.7 -0.3
v 0.8 0 -0.3
v 0.8 0.3 -0.3
v 0.9 0 -0.3
v 0.9 0.6 -0.3
v 0.1 0.6 -0.5
v 0.1 0.7 -0.5
v 0.2 0.6 -0.5
v 0.2 0.7 -0.5
v 0.1 0.7 -0.9
v 0.1 0.9 -0.9
v 0.2 0.7 -0.9
v 0.2 0.9 -0.9
v 0 0.6 -1
v 0 0.7 -1
v 0 1 -1
v 0 1.1 -1
v 0.1 0.6 -1
v 0.1 0.7 -1
v 0.1 1 -1
v 0.1 1.1 -1
v 0 0.7 -1.1
v 0 1 -1.1
v 0.1 0.7 -1.1
v 0.1 1 -1.1
v 0.2 0 0.3
v 0.3 0 0.3
v 0.8 0 0.3
v 0.9 0 0.3
v 0.2 0 0.2
v 0.3 0 0.2
v 0.8 0 0.2
v 0.9 0 0.2
v 0.2 0 -0.2
v 0.3 0 -0.2
v 0.8 0 -0.2
v 0.9 0 -0.2
v 0.2 0 -0.3
v 0.3 0 -0.3
v 0.8 0 -0.3
v 0.9 0 -0.3
v 0.3 0.3 0.3
v 0.8 0.3 0.3
v 0.2 0.3 0.2
v 0.3 0.3 0.2
v 0.8 0.3 0.2
v 0.9 0.3 0.2
v 0.1 0.3 0.1
v 0.2 0.3 0.1
v 0.1 0.3 -0.1
v 0.2 0.3 -0.1
v 0.2 0.3 -0.2
v 0.3 0.3 -0.2
v 0.8 0.3 -0.2
v 0.9 0.3 -0.2
v 0.3 0.3 -0.3
v 0.8 0.3 -0.3
v 0.1 0.4 0.2
v 0.2 0.4 0.2
v -0.1 0.4 0.1
v 0 0.4 0.1
v 0.1 0.4 0.1
v 0.2 0.4 0.1
v -0.1 0.4 -0.1
v 0 0.4 -0.1
v 0.1 0.4 -0.1
v 0.2 0.4 -0.1
v 0.1 0.4 -0.2
v 0.2 0.4 -0.2
v 0.1 0.5 0.3
v 0.2 0.5 0.3
v -0.1 0.5 0.2
v 0 0.5 0.2
v 0.1 0.5 0.2
v 0.2 0.5 0.2
v 0.3 0.5 0.2
v 0.8 0.5 0.2
v -0.1 0.5 0.1
v 0 0.5 0.1
v 0.9 0.5 0.1
v 1.3 0.5 0.1
v -0.1 0.5 -0.1
v 0 0.5 -0.1
v 0.9 0.5 -0.1
v 1.3 0.5 -0.1
v -0.1 0.5 -0.2
v 0 0.5 -0.2
v 0.1 0.5 -0.2
v 0.2 0.5 -0.2
v 0.3 0.5 -0.2
v 0.8 0.5 -0.2
v 0.1 0.5 -0.3
v 0.2 0.5 -0.3
v 0 0.6 1
v 0.1 0.6 1
v 0.1 0.6 0.5
v 0.2 0.6 0.5
v 0.1 0.6 0.3
v 0.2 0.6 0.3
v 0 0.6 0.2
v 0.1 0.6 0.2
v 0 0.6 -0.2
v 0.1 0.6 -0.2
v 0.1 0.6 -0.3
v 0.2 0.6 -0.3
v 0.1 0.6 -0.5
v 0.2 0.6 -0.5
v 0 0.6 -1
v 0.1 0.6 -1
v 0 0.7 1.1
v 0.1 0.7 1.1
v 0 0.7 1
v 0.1 0.7 1
v 0.1 0.7 0.9
v 0.2 0.7 0.9
v 0.1 0.7 0.5
v 0.2 0.7 0.5
v 0.1 0.7 -0.5
v 0.2 0.7 -0.5
v 0.1 0.7 -0.9
v 0.2 0.7 -0.9
v 0 0.7 -1
v 0.1 0.7 -1
v 0 0.7 -1.1
v 0.1 0.7 -1.1
v 0.3 0.4 0.2
v 0.8 0.4 0.2
v 0.3 0.4 -0.2
v 0.8 0.4 -0.2
v 0.4 0.6 0.3
v 0.9 0.6 0.3
v 0.4 0.6 0.2
v 0.8 0.6 0.2
v 0.9 0.6 0.1
v 1.3 0.6 0.1
v 0.9 0.6 -0.1
v 1.3 0.6 -0.1
v 0.4 0.6 -0.2
v 0.8 0.6 -0.2
v 0.4 0.6 -0.3
v 0.9 0.6 -0.3
v 0.2 0.7 0.3
v 0.4 0.7 0.3
v -0.1 0.7 0.2
v 0 0.7 0.2
v 0.2 0.7 0.2
v 0.4 0.7 0.2
v 0.8 0.7 0.2
v -0.1 0.7 0.1
v 0 0.7 0.1
v 0.4 0.7 0.1
v 0.6 0.7 0.1
v -0.1 0.7 -0.1
v 0 0.7 -0.1
v 0.4 0.7 -0.1
v 0.6 0.7 -0.1
v -0.1 0.7 -0.2
v 0 0.7 -0.2
v 0.2 0.7 -0.2
v 0.4 0.7 -0.2
v 0.8 0.7 -0.2
v 0.2 0.7 -0.3
v 0.4 0.7 -0.3
v 0.1 0.8 0.7
v 0.2 0.8 0.7
v 0.1 0.8 0.3
v 0.2 0.8 0.3
v 0.2 0.8 0.2
v 0.4 0.8 0.2
v -0.1 0.8 0.1
v 0 0.8 0.1
v 0.2 0.8 0.1
v 0.4 0.8 0.1
v 0.6 0.8 0.1
v -0.1 0.8 -0.1
v 0 0.8 -0.1
v 0.2 0.8 -0.1
v 0.4 0.8 -0.1
v 0.6 0.8 -0.1
v 0.2 0.8 -0.2
v 0.4 0.8 -0.2
v 0.1 0.8 -0.3
v 0.2 0.8 -0.3
v 0.1 0.8 -0.7
v 0.2 0.8 -0.7
v 0.1 0.9 0.9
v 0.2 0.9 0.9
v 0.1 0.9 0.7
v 0.2 0.9 0.7
v 0.1 0.9 0.3
v 0.2 0.9 0.3
v 0.1 0.9 0.2
v 0.2 0.9 0.2
v 0.3 0.9 0.1
v 0.4 0.9 0.1
v 0.3 0.9 -0.1
v 0.4 0.9 -0.1
v 0.1 0.9 -0.2
v 0.2 0.9 -0.2
v 0.1 0.9 -0.3
v 0.2 0.9 -0.3
v 0.1 0.9 -0.7
v 0.2 0.9 -0.7
v 0.1 0.9 -0.9
v 0.2 0.9 -0.9
v 0 1 1.1
v 0.1 1 1.1
v 0 1 1
v 0.1 1 1
v 0 1 0.6
v 0.1 1 0.6
v 0 1 0.3
v 0.1 1 0.3
v 0.1 1 0.2
v 0.2 1 0.2
v 0.1 1 0.1
v 0.2 1 0.1
v 0.3 1 0.1
v 0.1 1 -0.1
v 0.2 1 -0.1
v 0.3 1 -0.1
v 0.1 1 -0.2
v 0.2 1 -0.2
v 0 1 -0.3
v 0.1 1 -0.3
v 0 1 -0.6
v 0.1 1 -0.6
v 0 1 -1
v 0.1 1 -1
v 0 1 -1.1
v 0.1 1 -1.1
v 0 1.1 1
v 0.1 1.1 1
v 0 1.1 0.6
v 0.1 1.1 0.6
v 0 1.1 -0.6
v 0.1 1.1 -0.6
v 0 1.1 -1
v 0.1 1.1 -1
v 0 1.2 0.3
v 0.1 1.2 0.3
v 0 1.2 0.2
v 0.1 1.2 0.2
v 0.1 1.2 0.1
v 0.2 1.2 0.1
v 0.1 1.2 -0.1
v 0.2 1.2 -0.1
v 0 1.2 -0.2
v 0.1 1.2 -0.2
v 0 1.2 -0.3
v 0.1 1.2 -0.3
v 0 1.3 0.2
v 0.1 1.3 0.2
v 0 1.3 0.1
v 0.1 1.3 0.1
v 0 1.3 -0.1
v 0.1 1.3 -0.1
v 0 1.3 -0.2
v 0.1 1.3 -0.2
v 0 1.4 0.1
v 0.1 1.4 0.1
v 0 1.4 -0.1
v 0.1 1.4 -0.1

# faces
f 4/1/1 2/1/1 1/1/1
f 5/1/1 2/1/1 4/1/1
f 7/1/1 4/1/1 3/1/1
f 7/1/1 6/1/1 5/1/1
f 7/1/1 5/1/1 4/1/1
f 8/1/1 6/1/1 7/1/1
f 9/1/1 6/1/1 8/1/1
f 10/1/1 6/1/1 9/1/1
f 11/1/1 9/1/1 8/1/1
f 12/1/1 9/1/1 11/1/1
f 18/3/1 14/3/1 13/3/1
f 19/3/1 14/3/1 18/3/1
f 22/3/1 16/3/1 15/3/1
f 23/3/1 16/3/1 22/3/1
f 25/3/1 20/3/1 19/3/1
f 25/3/1 18/3/1 17/3/1
f 25/3/1 19/3/1 18/3/1
f 26/3/1 24/3/1 23/3/1
f 26/3/1 23/3/1 22/3/1
f 26/3/1 22/3/1 21/3/1
f 27/3/1 25/3/1 17/3/1
f 27/3/1 26/3/1 25/3/1
f 28/3/1 26/3/1 27/3/1
f 29/3/1 26/3/1 28/3/1
f 30/3/1 26/3/1 29/3/1
f 31/3/1 24/3/1 26/3/1
f 31/3/1 26/3/1 30/3/1
f 32/3/1 24/3/1 31/3/1
f 33/3/1 24/3/1 32/3/1
f 34/3/1 24/3/1 33/3/1
f 35/3/1 29/3/1 28/3/1
f 36/3/1 29/3/1 35/3/1
f 37/3/1 33/3/1 32/3/1
f 38/3/1 33/3/1 37/3/1
f 39/3/1 31/3/1 30/3/1
f 40/3/1 31/3/1 39/3/1
f 41/3/1 31/3/1 40/3/1
f 42/3/1 31/3/1 41/3/1
f 43/3/1 41/3/1 40/3/1
f 44/3/1 41/3/1 43/3/1
f 45/3/1 41/3/1 44/3/1
f 46/3/1 41/3/1 45/3/1
f 47/3/1 45/3/1 44/3/1
f 48/3/1 45/3/1 47/3/1
f 52/3/1 50/3/1 49/3/1
f 53/3/1 50/3/1 52/3/1
f 56/3/1 52/3/1 51/3/1
f 56/3/1 54/3/1 53/3/1
f 56/3/1 53/3/1 52/3/1
f 57/3/1 54/3/1 56/3/1
f 59/3/1 56/3/1 55/3/1
f 60/3/1 56/3/1 59/3/1
f 61/3/1 58/3/1 57/3/1
f 62/3/1 58/3/1 61/3/1
f 67/2/1 64/2/1 63/2/1
f 70/2/1 66/2/1 65/2/1
f 71/2/1 68/2/1 67/2/1
f 71/2/1 67/2/1 63/2/1
f 72/2/1 68/2/1 71/2/1
f 73/2/1 70/2/1 69/2/1
f 74/2/1 66/2/1 70/2/1
f 74/2/1 70/2/1 73/2/1
f 75/2/1 71/2/1 63/2/1
f 76/2/1 71/2/1 75/2/1
f 77/2/1 66/2/1 74/2/1
f 78/2/1 66/2/1 77/2/1
f 83/2/1 80/2/1 79/2/1
f 84/2/1 80/2/1 83/2/1
f 85/2/1 82/2/1 81/2/1
f 86/2/1 82/2/1 85/2/1
f 89/2/1 88/2/1 87/2/1
f 90/2/1 88/2/1 89/2/1
f 91/1/2 92/1/2 93/1/2
f 93/1/2 92/1/2 94/1/2
f 95/3/2 96/3/2 100/3/2
f 100/3/2 96/3/2 101/3/2
f 101/3/2 96/3/2 102/3/2
f 97/3/2 98/3/2 103/3/2
f 103/3/2 98/3/2 104/3/2
f 104/3/2 98/3/2 105/3/2
f 99/3/2 100/3/2 111/3/2
f 100/3/2 101/3/2 111/3/2
f 107/3/2 108/3/2 112/3/2
f 112/3/2 108/3/2 113/3/2
f 109/3/2 110/3/2 116/3/2
f 116/3/2 110/3/2 117/3/2
f 105/3/2 106/3/2 118/3/2
f 104/3/2 105/3/2 118/3/2
f 113/3/2 114/3/2 119/3/2
f 99/3/2 111/3/2 119/3/2
f 111/3/2 112/3/2 119/3/2
f 112/3/2 113/3/2 119/3/2
f 119/3/2 114/3/2 120/3/2
f 120/3/2 114/3/2 121/3/2
f 121/3/2 114/3/2 122/3/2
f 122/3/2 114/3/2 123/3/2
f 116/3/2 117/3/2 126/3/2
f 117/3/2 118/3/2 126/3/2
f 115/3/2 116/3/2 126/3/2
f 126/3/2 118/3/2 127/3/2
f 127/3/2 118/3/2 128/3/2
f 118/3/2 106/3/2 129/3/2
f 128/3/2 118/3/2 129/3/2
f 129/3/2 106/3/2 130/3/2
f 120/3/2 121/3/2 131/3/2
f 131/3/2 121/3/2 132/3/2
f 128/3/2 129/3/2 133/3/2
f 133/3/2 129/3/2 134/3/2
f 123/3/2 124/3/2 135/3/2
f 122/3/2 123/3/2 135/3/2
f 135/3/2 124/3/2 136/3/2
f 136/3/2 124/3/2 137/3/2
f 126/3/2 127/3/2 138/3/2
f 125/3/2 126/3/2 138/3/2
f 138/3/2 127/3/2 139/3/2
f 139/3/2 127/3/2 140/3/2
f 136/3/2 137/3/2 141/3/2
f 138/3/2 139/3/2 141/3/2
f 137/3/2 138/3/2 141/3/2
f 141/3/2 139/3/2 142/3/2
f 142/3/2 139/3/2 143/3/2
f 143/3/2 139/3/2 144/3/2
f 142/3/2 143/3/2 145/3/2
f 145/3/2 143/3/2 146/3/2
f 147/3/2 148/3/2 152/3/2
f 152/3/2 148/3/2 153/3/2
f 149/3/2 150/3/2 156/3/2
f 156/3/2 150/3/2 157/3/2
f 153/3/2 154/3/2 159/3/2
f 151/3/2 152/3/2 159/3/2
f 152/3/2 153/3/2 159/3/2
f 159/3/2 154/3/2 160/3/2
f 160/3/2 154/3/2 161/3/2
f 157/3/2 158/3/2 164/3/2
f 156/3/2 157/3/2 164/3/2
f 155/3/2 156/3/2 164/3/2
f 164/3/2 158/3/2 165/3/2
f 165/3/2 158/3/2 166/3/2
f 151/3/2 159/3/2 167/3/2
f 167/3/2 159/3/2 168/3/2
f 161/3/2 162/3/2 169/3/2
f 160/3/2 161/3/2 169/3/2
f 169/3/2 162/3/2 170/3/2
f 164/3/2 165/3/2 171/3/2
f 163/3/2 164/3/2 171/3/2
f 171/3/2 165/3/2 172/3/2
f 166/3/2 158/3/2 173/3/2
f 173/3/2 158/3/2 174/3/2
f 170/3/2 162/3/2 175/3/2
f 175/3/2 162/3/2 176/3/2
f 163/3/2 171/3/2 177/3/2
f 177/3/2 171/3/2 178/3/2
f 176/3/2 177/3/2 179/3/2
f 179/3/2 177/3/2 180/3/2
f 181/2/2 182/2/2 185/2/2
f 185/2/2 182/2/2 186/2/2
f 183/2/2 184/2/2 187/2/2
f 187/2/2 184/2/2 188/2/2
f 189/2/2 190/2/2 191/2/2
f 191/2/2 190/2/2 192/2/2
f 193/2/2 194/2/2 195/2/2
f 195/2/2 194/2/2 196/2/2
f 197/2/2 198/2/2 201/2/2
f 201/2/2 198/2/2 202/2/2
f 199/2/2 200/2/2 205/2/2
f 205/2/2 200/2/2 206/2/2
f 202/2/2 203/2/2 207/2/2
f 207/2/2 203/2/2 208/2/2
f 204/2/2 205/2/2 209/2/2
f 209/2/2 205/2/2 210/2/2
f 208/2/2 209/2/2 211/2/2
f 211/2/2 209/2/2 212/2/2
f 213/2/2 214/2/2 215/2/2
f 215/2/2 214/2/2 216/2/2
f 217/2/2 218/2/2 219/2/2
f 219/2/2 218/2/2 220/2/2
f 221/2/2 222/2/2 225/2/2
f 223/2/2 224/2/2 226/2/2
f 225/2/2 226/2/2 227/2/2
f 227/2/2 226/2/2 228/2/2
f 221/2/2 225/2/2 229/2/2
f 225/2/2 227/2/2 229/2/2
f 229/2/2 227/2/2 230/2/2
f 228/2/2 226/2/2 231/2/2
f 226/2/2 224/2/2 232/2/2
f 231/2/2 226/2/2 232/2/2
f 233/2/2 234/2/2 235/2/2
f 235/2/2 234/2/2 236/2/2
f 239/3/3 238/3/3 237/3/3
f 240/3/3 238/3/3 239/3/3
f 245/3/3 242/3/3 241/3/3
f 246/3/3 242/3/3 245/3/3
f 247/3/3 244/3/3 243/3/3
f 248/3/3 244/3/3 247/3/3
f 251/3/3 250/3/3 249/3/3
f 252/3/3 250/3/3 251/3/3
f 255/3/3 254/3/3 253/3/3
f 256/3/3 254/3/3 255/3/3
f 263/3/3 258/3/3 257/3/3
f 264/3/3 258/3/3 263/3/3
f 266/3/3 260/3/3 259/3/3
f 267/3/3 260/3/3 266/3/3
f 269/3/3 262/3/3 261/3/3
f 270/3/3 262/3/3 269/3/3
f 271/2/3 268/2/3 267/2/3
f 271/2/3 266/2/3 265/2/3
f 271/2/3 267/2/3 266/2/3
f 272/2/3 268/2/3 271/2/3
f 273/2/3 268/2/3 272/2/3
f 274/2/3 268/2/3 273/2/3
f 276/2/3 273/2/3 272/2/3
f 277/2/3 276/2/3 275/2/3
f 278/2/3 273/2/3 276/2/3
f 278/2/3 276/2/3 277/2/3
f 281/1/3 280/1/3 279/1/3
f 282/1/3 280/1/3 281/1/3
f 283/1/3 280/1/3 282/1/3
f 287/3/3 282/3/3 281/3/3
f 288/3/3 282/3/3 287/3/3
f 291/3/3 285/3/3 284/3/3
f 292/3/3 285/3/3 291/3/3
f 293/3/3 287/3/3 286/3/3
f 294/3/3 287/3/3 293/3/3
f 297/3/3 290/3/3 289/3/3
f 298/3/3 290/3/3 297/3/3
f 300/2/3 296/2/3 295/2/3
f 301/2/3 296/2/3 300/2/3
f 302/2/3 300/2/3 299/2/3
f 303/2/3 300/2/3 302/2/3
f 308/1/3 305/1/3 304/1/3
f 309/1/3 305/1/3 308/1/3
f 310/1/3 307/1/3 306/1/3
f 311/1/3 307/1/3 310/1/3
f 318/3/3 313/3/3 312/3/3
f 319/3/3 313/3/3 318/3/3
f 320/3/3 315/3/3 314/3/3
f 321/3/3 315/3/3 320/3/3
f 323/3/3 317/3/3 316/3/3
f 324/3/3 317/3/3 323/3/3
f 325/2/3 323/2/3 322/2/3
f 326/2/3 323/2/3 325/2/3
f 328/2/3 325/2/3 322/2/3
f 329/2/3 325/2/3 328/2/3
f 330/2/3 328/2/3 327/2/3
f 331/2/3 328/2/3 330/2/3
f 334/2/3 333/2/3 332/2/3
f 335/2/3 333/2/3 334/2/3
f 338/2/3 337/2/3 336/2/3
f 339/2/3 337/2/3 338/2/3
f 344/2/3 341/2/3 340/2/3
f 345/2/3 341/2/3 344/2/3
f 346/2/3 343/2/3 342/2/3
f 347/2/3 343/2/3 346/2/3
f 350/3/3 349/3/3 348/3/3
f 351/3/3 349/3/3 350/3/3
f 354/3/3 353/3/3 352/3/3
f 355/3/3 353/3/3 354/3/3
f 356/3/4 357/3/4 358/3/4
f 358/3/4 357/3/4 359/3/4
f 360/3/4 361/3/4 362/3/4
f 362/3/4 361/3/4 363/3/4
f 364/2/4 365/2/4 366/2/4
f 366/2/4 365/2/4 367/2/4
f 368/2/4 369/2/4 372/2/4
f 372/2/4 369/2/4 373/2/4
f 370/2/4 371/2/4 374/2/4
f 374/2/4 371/2/4 375/2/4
f 376/1/4 377/1/4 380/1/4
f 380/1/4 377/1/4 381/1/4
f 378/1/4 379/1/4 382/1/4
f 382/1/4 379/1/4 383/1/4
f 384/3/4 385/3/4 390/3/4
f 390/3/4 385/3/4 391/3/4
f 386/3/4 387/3/4 392/3/4
f 392/3/4 387/3/4 393/3/4
f 388/3/4 389/3/4 395/3/4
f 395/3/4 389/3/4 396/3/4
f 394/2/4 395/2/4 397/2/4
f 397/2/4 395/2/4 398/2/4
f 394/2/4 397/2/4 400/2/4
f 400/2/4 397/2/4 401/2/4
f 399/2/4 400/2/4 402/2/4
f 402/2/4 400/2/4 403/2/4
f 404/2/4 405/2/4 406/2/4
f 406/2/4 405/2/4 407/2/4
f 408/1/4 409/1/4 410/1/4
f 410/1/4 409/1/4 411/1/4
f 411/1/4 409/1/4 412/1/4
f 410/3/4 411/3/4 416/3/4
f 416/3/4 411/3/4 417/3/4
f 413/3/4 414/3/4 420/3/4
f 420/3/4 414/3/4 421/3/4
f 415/3/4 416/3/4 422/3/4
f 422/3/4 416/3/4 423/3/4
f 418/3/4 419/3/4 426/3/4
f 426/3/4 419/3/4 427/3/4
f 424/2/4 425/2/4 429/2/4
f 429/2/4 425/2/4 430/2/4
f 428/2/4 429/2/4 431/2/4
f 431/2/4 429/2/4 432/2/4
f 433/3/4 434/3/4 439/3/4
f 439/3/4 434/3/4 440/3/4
f 435/3/4 436/3/4 442/3/4
f 442/3/4 436/3/4 443/3/4
f 437/3/4 438/3/4 445/3/4
f 445/3/4 438/3/4 446/3/4
f 443/2/4 444/2/4 447/2/4
f 441/2/4 442/2/4 447/2/4
f 442/2/4 443/2/4 447/2/4
f 447/2/4 444/2/4 448/2/4
f 448/2/4 444/2/4 449/2/4
f 449/2/4 444/2/4 450/2/4
f 448/2/4 449/2/4 452/2/4
f 451/2/4 452/2/4 453/2/4
f 452/2/4 449/2/4 454/2/4
f 453/2/4 452/2/4 454/2/4
f 455/3/4 456/3/4 457/3/4
f 457/3/4 456/3/4 458/3/4
f 459/3/4 460/3/4 461/3/4
f 461/3/4 460/3/4 462/3/4
f 463/3/4 464/3/4 467/3/4
f 467/3/4 464/3/4 468/3/4
f 465/3/4 466/3/4 469/3/4
f 469/3/4 466/3/4 470/3/4
f 471/3/4 472/3/4 473/3/4
f 473/3/4 472/3/4 474/3/4
f 479/2/5 476/2/5 475/2/5
f 480/2/5 476/2/5 479/2/5
f 481/2/5 478/2/5 477/2/5
f 482/2/5 478/2/5 481/2/5
f 487/2/5 484/2/5 483/2/5
f 488/2/5 484/2/5 487/2/5
f 489/2/5 486/2/5 485/2/5
f 490/2/5 486/2/5 489/2/5
f 494/2/5 492/2/5 491/2/5
f 495/2/5 492/2/5 494/2/5
f 498/2/5 494/2/5 493/2/5
f 498/2/5 496/2/5 495/2/5
f 498/2/5 495/2/5 494/2/5
f 499/3/5 498/3/5 497/3/5
f 500/2/5 496/2/5 498/2/5
f 500/3/5 498/3/5 499/3/5
f 501/2/5 496/2/5 500/2/5
f 502/2/5 496/2/5 501/2/5
f 503/2/5 496/2/5 502/2/5
f 504/2/5 496/2/5 503/2/5
f 505/2/5 503/2/5 502/2/5
f 506/2/5 503/2/5 505/2/5
f 511/3/5 508/3/5 507/3/5
f 512/3/5 508/3/5 511/3/5
f 513/1/5 510/1/5 509/1/5
f 514/1/5 510/1/5 513/1/5
f 517/3/5 516/3/5 515/3/5
f 518/3/5 516/3/5 517/3/5
f 523/3/5 520/3/5 519/3/5
f 524/3/5 520/3/5 523/3/5
f 527/1/5 522/1/5 521/1/5
f 528/3/5 523/3/5 522/3/5
f 528/1/5 522/1/5 527/1/5
f 532/3/5 523/3/5 528/3/5
f 533/2/5 530/2/5 529/2/5
f 534/2/5 530/2/5 533/2/5
f 535/1/5 532/1/5 531/1/5
f 536/3/5 523/3/5 532/3/5
f 536/1/5 532/1/5 535/1/5
f 537/3/5 523/3/5 536/3/5
f 539/2/5 526/2/5 525/2/5
f 540/2/5 526/2/5 539/2/5
f 541/3/5 538/3/5 537/3/5
f 542/3/5 538/3/5 541/3/5
f 545/3/5 544/3/5 543/3/5
f 547/3/5 545/3/5 543/3/5
f 547/3/5 546/3/5 545/3/5
f 548/3/5 546/3/5 547/3/5
f 549/3/5 547/3/5 543/3/5
f 550/3/5 547/3/5 549/3/5
f 553/3/5 552/3/5 551/3/5
f 555/3/5 553/3/5 551/3/5
f 555/3/5 554/3/5 553/3/5
f 556/3/5 554/3/5 555/3/5
f 557/3/5 555/3/5 551/3/5
f 558/3/5 555/3/5 557/3/5
f 561/3/5 560/3/5 559/3/5
f 562/3/5 560/3/5 561/3/5
f 565/3/5 564/3/5 563/3/5
f 566/3/5 564/3/5 565/3/5
f 569/3/5 568/3/5 567/3/5
f 570/3/5 568/3/5 569/3/5
f 573/3/5 572/3/5 571/3/5
f 574/3/5 572/3/5 573/3/5
f 575/2/6 576/2/6 577/2/6
f 577/2/6 576/2/6 578/2/6
f 579/2/6 580/2/6 581/2/6
f 581/2/6 580/2/6 582/2/6
f 582/2/6 580/2/6 583/2/6
f 582/2/6 583/2/6 585/2/6
f 583/2/6 584/2/6 585/2/6
f 585/2/6 584/2/6 586/2/6
f 582/2/6 585/2/6 588/2/6
f 587/2/6 588/2/6 589/2/6
f 588/2/6 585/2/6 590/2/6
f 589/2/6 588/2/6 590/2/6
f 591/2/6 592/2/6 595/2/6
f 595/2/6 592/2/6 596/2/6
f 593/1/6 594/1/6 598/1/6
f 598/1/6 594/1/6 599/1/6
f 596/2/6 597/2/6 600/2/6
f 600/2/6 597/2/6 601/2/6
f 601/2/6 597/2/6 605/2/6
f 602/1/6 603/1/6 606/1/6
f 606/1/6 603/1/6 607/1/6
f 604/2/6 605/2/6 609/2/6
f 605/2/6 597/2/6 610/2/6
f 609/2/6 605/2/6 610/2/6
f 608/2/6 609/2/6 611/2/6
f 611/2/6 609/2/6 612/2/6
f 613/3/6 614/3/6 615/3/6
f 615/3/6 614/3/6 616/3/6
f 617/2/6 618/2/6 621/2/6
f 621/2/6 618/2/6 622/2/6
f 619/1/6 620/1/6 624/1/6
f 624/1/6 620/1/6 625/1/6
f 622/2/6 623/2/6 627/2/6
f 627/2/6 623/2/6 628/2/6
f 626/2/6 627/2/6 629/2/6
f 629/2/6 627/2/6 630/2/6
f 631/3/6 632/3/6 633/3/6
f 633/3/6 632/3/6 634/3/6
f 635/3/6 636/3/6 637/3/6
f 637/3/6 636/3/6 638/3/6
f 639/3/6 640/3/6 641/3/6
f 641/3/6 640/3/6 642/3/6
f 643/2/6 644/2/6 645/2/6
f 645/2/6 644/2/6 646/2/6
f 647/3/6 648/3/6 649/3/6
f 649/3/6 648/3/6 650/3/6
f 651/3/6 652/3/6 653/3/6
f 653/3/6 652/3/6 654/3/6
f 655/3/6 656/3/6 657/3/6
f 657/3/6 656/3/6 658/3/6
f 659/3/6 660/3/6 661/3/6
f 661/3/6 660/3/6 662/3/6
f 663/3/6 664/3/6 665/3/6
f 665/3/6 664/3/6 666/3/6
f 666/2/6 667/2/6 669/2/6
f 669/2/6 667/2/6 670/2/6
f 668/3/6 669/3/6 671/3/6
f 671/3/6 669/3/6 672/3/6
f 673/3/6 674/3/6 675/3/6
f 675/3/6 674/3/6 676/3/6
f 677/3/6 678/3/6 679/3/6
f 679/3/6 678/3/6 680/3/6
f 681/3/6 682/3/6 683/3/6
f 683/3/6 682/3/6 684/3/6
f 685/3/6 686/3/6 687/3/6
f 687/3/6 686/3/6 688/3/6
f 689/3/6 690/3/6 691/3/6
f 691/3/6 690/3/6 692/3/6
f 693/3/6 694/3/6 695/3/6
f 695/3/6 694/3/6 696/3/6
f 697/3/6 698/3/6 699/3/6
f 699/3/6 698/3/6 700/3/6
f 701/3/6 702/3/6 703/3/6
f 703/3/6 702/3/6 704/3/6
f 705/3/6 706/3/6 707/3/6
f 707/3/6 706/3/6 708/3/6
f 709/3/6 710/3/6 711/3/6
f 711/3/6 710/3/6 712/3/6
