# MagicaVoxel @ Ephtracy

# group
o 

# material
mtllib DogHead.mtl
usemtl palette

# normals
vn -1 0 0
vn 1 0 0
vn 0 0 1
vn 0 0 -1
vn 0 -1 0
vn 0 1 0

# texcoords
vt 0.154297 0.5
vt 0.841797 0.5
vt 0.869141 0.5
vt 0.994141 0.5

# verts
v -1.1 0.5 0.4
v -1.1 0.5 -0.4
v -1.1 0.6 0.4
v -1.1 0.6 -0.4
v -1.1 0.8 0.4
v -1.1 0.8 -0.4
v -1 0 0.4
v -1 0 -0.4
v -1 0.2 0.4
v -1 0.2 -0.4
v -1 0.5 0.4
v -1 0.5 -0.4
v -0.5 0.8 0.4
v -0.5 0.8 -0.4
v -0.5 0.9 0.4
v -0.5 0.9 -0.4
v -0.1 0.1 0.3
v -0.1 0.1 -0.3
v -0.1 0.8 0.3
v -0.1 0.8 -0.3
v -0.1 0.9 0.4
v -0.1 0.9 0.2
v -0.1 0.9 -0.2
v -0.1 0.9 -0.4
v -0.1 1 0.4
v -0.1 1 0.2
v -0.1 1 -0.2
v -0.1 1 -0.4
v -1 0.5 0.3
v -1 0.5 -0.3
v -1 0.6 0.3
v -1 0.6 -0.3
v -1 0.7 0.3
v -1 0.7 -0.3
v -0.9 0.1 0.3
v -0.9 0.1 -0.3
v -0.9 0.2 0.3
v -0.9 0.2 -0.3
v -0.9 0.5 0.3
v -0.9 0.5 -0.3
v -0.5 0.7 0.3
v -0.5 0.7 -0.3
v -0.5 0.8 0.3
v -0.5 0.8 -0.3
v 0 0 0.4
v 0 0 -0.4
v 0 0.7 0.4
v 0 0.7 0.3
v 0 0.7 -0.3
v 0 0.7 -0.4
v 0 0.8 0.4
v 0 0.8 0.3
v 0 0.8 0.2
v 0 0.8 -0.2
v 0 0.8 -0.3
v 0 0.8 -0.4
v 0 0.9 0.2
v 0 0.9 -0.2
v 0.1 0.8 0.4
v 0.1 0.8 0.3
v 0.1 0.8 0.2
v 0.1 0.8 -0.2
v 0.1 0.8 -0.3
v 0.1 0.8 -0.4
v 0.1 0.9 0.4
v 0.1 0.9 0.3
v 0.1 0.9 -0.3
v 0.1 0.9 -0.4
v 0.1 1 0.4
v 0.1 1 0.2
v 0.1 1 -0.2
v 0.1 1 -0.4
v -1.1 0.5 0.4
v -1.1 0.6 0.4
v -1.1 0.8 0.4
v -1 0 0.4
v -1 0.2 0.4
v -1 0.5 0.4
v -1 0.6 0.4
v -1 0.7 0.4
v -0.9 0.7 0.4
v -0.9 0.8 0.4
v -0.5 0.2 0.4
v -0.5 0.5 0.4
v -0.5 0.7 0.4
v -0.5 0.8 0.4
v -0.5 0.9 0.4
v -0.3 0.7 0.4
v -0.3 0.8 0.4
v -0.1 0.7 0.4
v -0.1 0.8 0.4
v -0.1 0.9 0.4
v -0.1 1 0.4
v 0 0 0.4
v 0 0.7 0.4
v 0 0.8 0.4
v 0 0.9 0.4
v 0.1 0.8 0.4
v 0.1 0.9 0.4
v 0.1 1 0.4
v -0.1 0.9 -0.2
v -0.1 1 -0.2
v 0 0.8 -0.2
v 0 0.9 -0.2
v 0.1 0.8 -0.2
v 0.1 1 -0.2
v -1 0.5 -0.3
v -1 0.6 -0.3
v -1 0.7 -0.3
v -0.9 0.1 -0.3
v -0.9 0.2 -0.3
v -0.9 0.5 -0.3
v -0.9 0.7 -0.3
v -0.5 0.2 -0.3
v -0.5 0.5 -0.3
v -0.5 0.7 -0.3
v -0.5 0.8 -0.3
v -0.3 0.7 -0.3
v -0.3 0.8 -0.3
v -0.1 0.1 -0.3
v -0.1 0.8 -0.3
v -1 0.5 0.3
v -1 0.6 0.3
v -1 0.7 0.3
v -0.9 0.1 0.3
v -0.9 0.2 0.3
v -0.9 0.5 0.3
v -0.9 0.7 0.3
v -0.5 0.2 0.3
v -0.5 0.5 0.3
v -0.5 0.7 0.3
v -0.5 0.8 0.3
v -0.3 0.7 0.3
v -0.3 0.8 0.3
v -0.1 0.1 0.3
v -0.1 0.8 0.3
v -0.1 0.9 0.2
v -0.1 1 0.2
v 0 0.8 0.2
v 0 0.9 0.2
v 0.1 0.8 0.2
v 0.1 1 0.2
v -1.1 0.5 -0.4
v -1.1 0.6 -0.4
v -1.1 0.8 -0.4
v -1 0 -0.4
v -1 0.2 -0.4
v -1 0.5 -0.4
v -1 0.6 -0.4
v -1 0.7 -0.4
v -0.9 0.7 -0.4
v -0.9 0.8 -0.4
v -0.5 0.2 -0.4
v -0.5 0.5 -0.4
v -0.5 0.7 -0.4
v -0.5 0.8 -0.4
v -0.5 0.9 -0.4
v -0.3 0.7 -0.4
v -0.3 0.8 -0.4
v -0.1 0.7 -0.4
v -0.1 0.8 -0.4
v -0.1 0.9 -0.4
v -0.1 1 -0.4
v 0 0 -0.4
v 0 0.7 -0.4
v 0 0.8 -0.4
v 0 0.9 -0.4
v 0.1 0.8 -0.4
v 0.1 0.9 -0.4
v 0.1 1 -0.4
v -1 0 0.4
v 0 0 0.4
v -1 0 -0.4
v 0 0 -0.4
v -1.1 0.5 0.4
v -1 0.5 0.4
v -1.1 0.5 -0.4
v -1 0.5 -0.4
v -1 0.7 0.3
v -0.9 0.7 0.3
v -0.5 0.7 0.3
v -1 0.7 -0.3
v -0.9 0.7 -0.3
v -0.5 0.7 -0.3
v 0 0.8 0.4
v 0.1 0.8 0.4
v -0.5 0.8 0.3
v -0.3 0.8 0.3
v -0.1 0.8 0.3
v 0 0.8 0.3
v 0.1 0.8 0.3
v 0 0.8 0.2
v 0.1 0.8 0.2
v 0 0.8 -0.2
v 0.1 0.8 -0.2
v -0.5 0.8 -0.3
v -0.3 0.8 -0.3
v -0.1 0.8 -0.3
v 0 0.8 -0.3
v 0.1 0.8 -0.3
v 0 0.8 -0.4
v 0.1 0.8 -0.4
v -0.9 0.1 0.3
v -0.1 0.1 0.3
v -0.9 0.1 -0.3
v -0.1 0.1 -0.3
v -1 0.5 0.3
v -0.9 0.5 0.3
v -1 0.5 -0.3
v -0.9 0.5 -0.3
v -1.1 0.8 0.4
v -0.9 0.8 0.4
v -0.5 0.8 0.4
v -1.1 0.8 -0.4
v -0.9 0.8 -0.4
v -0.5 0.8 -0.4
v -0.5 0.9 0.4
v -0.1 0.9 0.4
v -0.1 0.9 0.2
v 0 0.9 0.2
v -0.1 0.9 -0.2
v 0 0.9 -0.2
v -0.5 0.9 -0.4
v -0.1 0.9 -0.4
v -0.1 1 0.4
v 0.1 1 0.4
v -0.1 1 0.2
v 0.1 1 0.2
v -0.1 1 -0.2
v 0.1 1 -0.2
v -0.1 1 -0.4
v 0.1 1 -0.4

# faces
f 3/2/1 2/2/1 1/2/1
f 4/2/1 2/2/1 3/2/1
f 5/3/1 4/3/1 3/3/1
f 6/3/1 4/3/1 5/3/1
f 9/2/1 8/2/1 7/2/1
f 10/2/1 8/2/1 9/2/1
f 11/1/1 10/1/1 9/1/1
f 12/1/1 10/1/1 11/1/1
f 15/2/1 14/2/1 13/2/1
f 16/2/1 14/2/1 15/2/1
f 19/2/1 18/2/1 17/2/1
f 20/2/1 18/2/1 19/2/1
f 25/2/1 22/2/1 21/2/1
f 26/2/1 22/2/1 25/2/1
f 27/2/1 24/2/1 23/2/1
f 28/2/1 24/2/1 27/2/1
f 29/2/2 30/2/2 31/2/2
f 31/2/2 30/2/2 32/2/2
f 31/3/2 32/3/2 33/3/2
f 33/3/2 32/3/2 34/3/2
f 35/2/2 36/2/2 37/2/2
f 37/2/2 36/2/2 38/2/2
f 37/1/2 38/1/2 39/1/2
f 39/1/2 38/1/2 40/1/2
f 41/2/2 42/2/2 43/2/2
f 43/2/2 42/2/2 44/2/2
f 45/2/2 46/2/2 47/2/2
f 47/2/2 46/2/2 48/2/2
f 48/2/2 46/2/2 49/2/2
f 49/2/2 46/2/2 50/2/2
f 47/3/2 48/3/2 51/3/2
f 48/2/2 49/2/2 52/2/2
f 51/3/2 48/3/2 52/3/2
f 52/2/2 49/2/2 53/2/2
f 53/2/2 49/2/2 54/2/2
f 49/3/2 50/3/2 55/3/2
f 54/2/2 49/2/2 55/2/2
f 55/3/2 50/3/2 56/3/2
f 53/2/2 54/2/2 57/2/2
f 57/2/2 54/2/2 58/2/2
f 59/3/2 60/3/2 65/3/2
f 60/2/2 61/2/2 66/2/2
f 65/3/2 60/3/2 66/3/2
f 63/3/2 64/3/2 67/3/2
f 62/2/2 63/2/2 67/2/2
f 67/3/2 64/3/2 68/3/2
f 65/2/2 66/2/2 69/2/2
f 66/2/2 61/2/2 70/2/2
f 69/2/2 66/2/2 70/2/2
f 62/2/2 67/2/2 71/2/2
f 67/2/2 68/2/2 71/2/2
f 71/2/2 68/2/2 72/2/2
f 78/2/3 74/2/3 73/2/3
f 79/3/3 75/3/3 74/3/3
f 79/2/3 74/2/3 78/2/3
f 80/3/3 75/3/3 79/3/3
f 81/2/3 79/2/3 78/2/3
f 81/3/3 75/3/3 80/3/3
f 81/2/3 80/2/3 79/2/3
f 82/3/3 75/3/3 81/3/3
f 83/2/3 77/2/3 76/2/3
f 83/1/3 78/1/3 77/1/3
f 84/2/3 82/2/3 81/2/3
f 84/1/3 78/1/3 83/1/3
f 84/2/3 81/2/3 78/2/3
f 85/2/3 82/2/3 84/2/3
f 86/2/3 82/2/3 85/2/3
f 88/4/3 86/4/3 85/4/3
f 88/2/3 84/2/3 83/2/3
f 88/2/3 85/2/3 84/2/3
f 89/2/3 87/2/3 86/2/3
f 89/4/3 86/4/3 88/4/3
f 90/2/3 88/2/3 83/2/3
f 90/2/3 89/2/3 88/2/3
f 91/2/3 87/2/3 89/2/3
f 91/2/3 89/2/3 90/2/3
f 92/2/3 87/2/3 91/2/3
f 94/2/3 90/2/3 83/2/3
f 94/2/3 83/2/3 76/2/3
f 95/3/3 91/3/3 90/3/3
f 95/2/3 90/2/3 94/2/3
f 96/2/3 93/2/3 92/2/3
f 96/3/3 91/3/3 95/3/3
f 96/2/3 92/2/3 91/2/3
f 97/2/3 93/2/3 96/2/3
f 98/3/3 97/3/3 96/3/3
f 99/2/3 93/2/3 97/2/3
f 99/3/3 97/3/3 98/3/3
f 100/2/3 93/2/3 99/2/3
f 104/2/3 102/2/3 101/2/3
f 105/2/3 104/2/3 103/2/3
f 106/2/3 102/2/3 104/2/3
f 106/2/3 104/2/3 105/2/3
f 112/2/3 108/2/3 107/2/3
f 112/2/3 109/2/3 108/2/3
f 113/2/3 109/2/3 112/2/3
f 114/2/3 111/2/3 110/2/3
f 114/1/3 112/1/3 111/1/3
f 115/2/3 113/2/3 112/2/3
f 115/1/3 112/1/3 114/1/3
f 116/2/3 113/2/3 115/2/3
f 118/2/3 116/2/3 115/2/3
f 118/4/3 117/4/3 116/4/3
f 118/2/3 115/2/3 114/2/3
f 119/4/3 117/4/3 118/4/3
f 120/2/3 114/2/3 110/2/3
f 120/2/3 118/2/3 114/2/3
f 120/2/3 119/2/3 118/2/3
f 121/2/3 119/2/3 120/2/3
f 122/2/4 123/2/4 127/2/4
f 123/2/4 124/2/4 127/2/4
f 127/2/4 124/2/4 128/2/4
f 125/2/4 126/2/4 129/2/4
f 126/1/4 127/1/4 129/1/4
f 127/2/4 128/2/4 130/2/4
f 129/1/4 127/1/4 130/1/4
f 130/2/4 128/2/4 131/2/4
f 130/2/4 131/2/4 133/2/4
f 131/4/4 132/4/4 133/4/4
f 129/2/4 130/2/4 133/2/4
f 133/4/4 132/4/4 134/4/4
f 125/2/4 129/2/4 135/2/4
f 129/2/4 133/2/4 135/2/4
f 133/2/4 134/2/4 135/2/4
f 135/2/4 134/2/4 136/2/4
f 137/2/4 138/2/4 140/2/4
f 139/2/4 140/2/4 141/2/4
f 140/2/4 138/2/4 142/2/4
f 141/2/4 140/2/4 142/2/4
f 143/2/4 144/2/4 148/2/4
f 144/3/4 145/3/4 149/3/4
f 148/2/4 144/2/4 149/2/4
f 149/3/4 145/3/4 150/3/4
f 148/2/4 149/2/4 151/2/4
f 150/3/4 145/3/4 151/3/4
f 149/2/4 150/2/4 151/2/4
f 151/3/4 145/3/4 152/3/4
f 146/2/4 147/2/4 153/2/4
f 147/1/4 148/1/4 153/1/4
f 151/2/4 152/2/4 154/2/4
f 153/1/4 148/1/4 154/1/4
f 148/2/4 151/2/4 154/2/4
f 154/2/4 152/2/4 155/2/4
f 155/2/4 152/2/4 156/2/4
f 155/4/4 156/4/4 158/4/4
f 153/2/4 154/2/4 158/2/4
f 154/2/4 155/2/4 158/2/4
f 156/2/4 157/2/4 159/2/4
f 158/4/4 156/4/4 159/4/4
f 153/2/4 158/2/4 160/2/4
f 158/2/4 159/2/4 160/2/4
f 159/2/4 157/2/4 161/2/4
f 160/2/4 159/2/4 161/2/4
f 161/2/4 157/2/4 162/2/4
f 153/2/4 160/2/4 164/2/4
f 146/2/4 153/2/4 164/2/4
f 160/3/4 161/3/4 165/3/4
f 164/2/4 160/2/4 165/2/4
f 162/2/4 163/2/4 166/2/4
f 165/3/4 161/3/4 166/3/4
f 161/2/4 162/2/4 166/2/4
f 166/2/4 163/2/4 167/2/4
f 166/3/4 167/3/4 168/3/4
f 167/2/4 163/2/4 169/2/4
f 168/3/4 167/3/4 169/3/4
f 169/2/4 163/2/4 170/2/4
f 173/2/5 172/2/5 171/2/5
f 174/2/5 172/2/5 173/2/5
f 177/2/5 176/2/5 175/2/5
f 178/2/5 176/2/5 177/2/5
f 182/3/5 180/3/5 179/3/5
f 183/2/5 181/2/5 180/2/5
f 183/3/5 180/3/5 182/3/5
f 184/2/5 181/2/5 183/2/5
f 190/3/5 186/3/5 185/3/5
f 191/3/5 186/3/5 190/3/5
f 192/2/5 191/2/5 190/2/5
f 193/2/5 191/2/5 192/2/5
f 196/2/5 189/2/5 188/2/5
f 196/2/5 188/2/5 187/2/5
f 197/2/5 189/2/5 196/2/5
f 198/2/5 189/2/5 197/2/5
f 199/2/5 195/2/5 194/2/5
f 200/2/5 195/2/5 199/2/5
f 201/3/5 200/3/5 199/3/5
f 202/3/5 200/3/5 201/3/5
f 203/2/6 204/2/6 205/2/6
f 205/2/6 204/2/6 206/2/6
f 207/1/6 208/1/6 209/1/6
f 209/1/6 208/1/6 210/1/6
f 211/3/6 212/3/6 214/3/6
f 212/2/6 213/2/6 215/2/6
f 214/3/6 212/3/6 215/3/6
f 215/2/6 213/2/6 216/2/6
f 217/2/6 218/2/6 219/2/6
f 217/2/6 219/2/6 221/2/6
f 219/2/6 220/2/6 221/2/6
f 221/2/6 220/2/6 222/2/6
f 217/2/6 221/2/6 223/2/6
f 223/2/6 221/2/6 224/2/6
f 225/2/6 226/2/6 227/2/6
f 227/2/6 226/2/6 228/2/6
f 229/2/6 230/2/6 231/2/6
f 231/2/6 230/2/6 232/2/6
